<?xml version="1.0" standalone="no"?>
<!DOCTYPE svg PUBLIC "-//W3C//DTD SVG 20010904//EN"
 "http://www.w3.org/TR/2001/REC-SVG-20010904/DTD/svg10.dtd">
<svg version="1.0" xmlns="http://www.w3.org/2000/svg"
 width="1800.000000pt" height="1800.000000pt" viewBox="0 0 1800.000000 1800.000000"
 preserveAspectRatio="xMidYMid meet">
<metadata>
Created by potrace 1.16, written by Peter Selinger 2001-2019
</metadata>
<g transform="translate(0.000000,1800.000000) scale(0.100000,-0.100000)"
fill="#000000" stroke="none">
<path d="M7986 15969 c6 -8 65 -86 131 -174 l120 -161 5 -117 c2 -64 2 -117 0
-117 -2 0 -20 14 -40 31 -121 106 -338 124 -567 48 -256 -86 -841 -410 -1550
-861 -275 -174 -328 -220 -359 -309 -10 -30 -48 -105 -84 -167 -35 -63 -79
-146 -96 -185 -28 -65 -31 -82 -31 -172 0 -90 3 -107 30 -167 l30 -67 110 -30
c160 -44 291 -63 448 -63 75 0 137 -3 137 -8 0 -10 -72 -28 -188 -45 -111 -17
-358 -20 -446 -5 -33 5 -61 9 -62 7 0 -1 3 -38 7 -82 22 -211 88 -384 176
-466 89 -83 410 -298 936 -628 125 -79 227 -146 227 -149 0 -4 -22 -59 -49
-122 -27 -64 -61 -154 -77 -200 l-28 -85 -7 -615 c-3 -338 -8 -760 -10 -937
l-4 -321 24 -26 c50 -53 133 -45 401 37 91 27 228 69 305 92 149 44 176 56
323 142 142 83 171 118 135 162 -16 20 -31 23 -173 31 -163 9 -289 31 -429 75
-67 21 -92 35 -127 70 -59 59 -82 134 -64 214 6 31 106 436 221 900 122 491
209 863 209 890 0 30 -9 65 -25 97 -25 50 -273 354 -459 562 -55 63 -121 137
-146 165 l-45 51 60 -38 c129 -82 318 -223 587 -439 l37 -29 330 78 c182 43
331 83 331 89 0 6 -13 32 -29 57 -28 45 -41 52 -308 185 -278 139 -564 270
-786 358 -148 59 -175 92 -124 149 12 14 109 66 217 117 174 81 200 91 238 86
27 -3 53 -14 68 -28 14 -13 78 -127 141 -253 l116 -229 61 -27 c192 -87 583
-213 855 -276 86 -19 160 -39 165 -44 5 -5 6 -15 3 -22 -3 -9 -220 -65 -608
-157 -332 -79 -607 -146 -611 -150 -4 -4 4 -45 18 -92 l26 -85 172 17 c94 10
321 35 505 55 319 35 335 35 348 19 11 -16 8 -25 -24 -69 -191 -267 -792
-1098 -811 -1121 -32 -39 -47 -84 179 534 104 283 187 516 185 518 -5 5 -419
-16 -495 -25 l-54 -7 -223 -940 c-123 -517 -224 -949 -226 -960 -3 -17 9 -23
72 -42 100 -29 121 -29 152 5 25 27 349 472 1048 1439 195 271 359 491 364
489 19 -5 774 -1347 780 -1385 16 -105 140 -159 208 -91 28 28 30 35 26 81 -4
39 -12 57 -38 84 -18 19 -46 37 -61 40 -15 4 -32 12 -37 18 -4 7 -143 305
-307 662 -164 358 -338 730 -387 827 -48 98 -88 180 -88 183 0 3 6 5 13 5 30
0 139 64 181 105 42 43 44 43 84 33 23 -6 52 -8 64 -5 14 4 56 49 103 110 48
63 95 113 119 127 l39 22 -6 99 c-3 55 -11 106 -17 114 -7 8 -31 20 -54 27
-22 6 -45 14 -49 18 -19 17 90 129 171 176 l34 19 27 -33 c38 -45 51 -94 51
-195 0 -69 4 -93 21 -121 18 -30 27 -36 55 -36 44 0 52 20 24 60 -29 40 -34
88 -21 183 l11 77 -46 67 c-41 60 -46 72 -41 110 2 24 17 68 32 98 22 46 25
58 14 71 -20 24 -88 56 -112 52 -22 -3 -26 -10 -74 -112 -56 -120 -167 -212
-316 -263 -70 -24 -97 -28 -189 -28 l-108 0 -16 -48 c-13 -40 -14 -53 -4 -72
18 -34 31 -37 163 -40 66 -2 121 -6 124 -9 14 -14 -17 -53 -83 -107 -79 -62
-108 -75 -152 -66 -68 14 -562 238 -731 331 -194 107 -169 77 -245 304 -69
209 -72 228 -32 262 24 19 74 17 96 -6 10 -10 64 -118 120 -239 56 -121 109
-232 117 -246 12 -20 59 -45 209 -108 l194 -82 58 45 c31 25 72 51 90 59 l33
13 -69 61 c-60 54 -74 74 -129 184 -109 221 -139 330 -173 635 -14 119 -4 150
56 179 30 14 43 15 79 6 85 -21 165 -6 165 33 0 38 32 115 50 121 11 4 20 13
20 20 0 8 9 19 19 25 11 5 22 23 26 38 4 20 15 32 39 40 59 22 61 32 28 118
-28 73 -29 79 -15 113 10 24 14 59 11 108 -3 71 -3 72 22 75 24 3 25 6 28 81
6 168 -68 301 -208 372 -109 55 -421 114 -740 140 -41 3 -93 8 -115 12 -33 5
-38 3 -29 -8z"/>
<path d="M5357 12688 l-278 -112 78 -79 c95 -97 152 -127 240 -127 56 0 88 10
290 91 126 50 234 94 242 98 9 6 -30 43 -128 124 -77 65 -146 117 -153 116 -7
0 -138 -50 -291 -111z"/>
<path d="M10000 12573 c-250 -41 -535 -144 -640 -232 l-35 -29 55 -111 c30
-61 58 -111 62 -111 4 0 40 13 80 29 164 65 304 91 482 91 293 0 537 -95 734
-284 150 -144 241 -310 284 -516 29 -136 21 -364 -16 -499 -71 -255 -187 -453
-377 -641 -205 -202 -461 -337 -741 -391 -145 -28 -379 -23 -500 9 -299 81
-533 263 -658 512 -74 146 -110 302 -110 470 0 286 100 553 308 820 27 35 27
35 -25 -8 -180 -148 -336 -387 -399 -607 -36 -125 -45 -368 -19 -512 33 -186
111 -383 208 -528 58 -86 189 -213 279 -269 362 -225 883 -245 1336 -51 222
95 399 218 587 409 137 138 222 249 310 406 250 441 280 973 79 1372 -178 354
-504 595 -898 663 -81 14 -320 19 -386 8z"/>
<path d="M5950 12556 c0 -3 47 -115 105 -248 l105 -242 -193 -334 -192 -334
-35 6 c-424 71 -896 -32 -1255 -272 -96 -64 -259 -201 -275 -232 -8 -15 8 -11
80 20 223 97 496 181 705 216 149 26 395 23 498 -4 43 -12 84 -25 92 -30 12
-6 -43 -108 -270 -502 -267 -464 -287 -496 -325 -515 -55 -28 -80 -68 -80
-128 0 -65 31 -97 92 -97 99 0 168 104 127 193 -11 23 9 48 346 423 197 220
372 414 390 432 l32 33 57 -52 c151 -138 242 -315 297 -579 71 -336 2 -662
-202 -960 -341 -499 -982 -745 -1502 -575 -173 56 -301 138 -428 273 -125 133
-202 282 -246 477 -22 96 -21 324 1 427 40 186 121 370 224 512 31 43 64 88
72 100 8 11 -12 -1 -44 -29 -214 -181 -369 -478 -406 -775 -14 -117 -13 -205
6 -328 69 -470 384 -832 820 -945 46 -12 84 -24 84 -27 0 -6 5 -3 -340 -212
-140 -85 -303 -182 -362 -216 l-107 -62 -78 27 c-105 36 -245 37 -383 3 -505
-122 -869 -408 -1116 -874 -52 -98 -60 -109 -144 -175 -509 -402 -872 -868
-1011 -1296 -28 -87 -32 -114 -33 -210 -2 -306 157 -592 430 -774 43 -29 80
-54 81 -55 1 0 -5 -28 -13 -61 -50 -214 37 -442 239 -631 81 -75 210 -150 312
-180 72 -21 237 -24 305 -5 25 7 97 37 161 66 236 110 700 243 1114 320 102
19 171 26 254 26 63 0 145 6 182 14 195 40 359 184 424 370 l24 70 88 13 c111
15 185 43 269 99 36 24 67 43 69 41 1 -2 -24 -68 -56 -147 -167 -407 -246
-739 -256 -1071 -9 -279 31 -477 132 -667 138 -261 341 -412 665 -495 95 -25
142 -31 270 -35 99 -4 175 -1 211 6 98 20 226 91 358 198 l54 44 46 -82 c153
-273 482 -460 811 -463 145 -1 225 22 335 95 120 80 198 192 236 336 18 69 19
95 13 232 l-7 154 29 -7 c133 -31 279 -26 390 13 58 21 188 93 199 111 10 15
38 12 89 -11 91 -40 232 -69 335 -69 117 0 192 18 286 69 l70 37 80 -24 c57
-17 114 -26 197 -29 107 -5 125 -3 200 21 46 14 96 34 111 44 27 18 29 19 83
1 200 -66 368 -63 513 11 l62 31 77 -25 c111 -35 215 -49 296 -42 l71 6 29
-90 c85 -267 310 -478 619 -582 108 -36 272 -49 370 -28 132 27 289 139 361
259 56 92 77 170 87 321 9 152 31 250 111 490 161 491 401 1002 638 1361 43
65 88 143 99 174 26 68 45 196 36 241 l-6 33 108 -6 c119 -6 193 7 291 52 l53
24 67 -35 c37 -19 92 -41 122 -49 75 -20 300 -19 421 1 109 18 299 79 388 124
l62 31 67 -51 c87 -65 235 -141 342 -175 163 -51 307 -43 447 24 101 49 112
59 311 275 207 225 537 578 700 750 142 149 227 271 274 394 31 84 32 92 32
237 0 137 -2 156 -26 217 -55 144 -146 258 -267 337 -40 25 -77 59 -96 89 -45
65 -121 148 -179 194 -43 34 -52 49 -75 116 -58 173 -180 294 -360 359 -54 20
-105 27 -276 39 -115 9 -220 18 -232 22 -12 4 -495 439 -1073 967 -578 528
-1054 961 -1059 963 -4 1 -379 -165 -832 -369 -453 -204 -844 -380 -867 -390
l-44 -19 173 -188 c95 -103 193 -208 218 -234 24 -26 42 -50 39 -54 -4 -3
-345 161 -759 365 -414 204 -758 371 -764 371 -7 0 -284 -118 -616 -261 -332
-144 -609 -262 -615 -262 -6 0 -202 80 -435 178 -232 98 -428 178 -434 178 -6
0 -250 -133 -543 -296 l-533 -297 -547 85 c-301 47 -557 87 -570 90 -21 5 -18
11 48 83 110 119 193 243 274 407 124 250 164 401 173 651 9 258 -26 434 -127
640 -117 240 -266 395 -536 560 -17 11 -6 30 132 235 83 123 155 223 160 223
5 -1 78 -155 164 -343 85 -187 158 -341 161 -341 4 0 9 107 11 238 l5 237
-157 374 -158 373 -113 80 c-63 45 -142 100 -176 125 -35 24 -63 42 -63 39z
m7652 -3166 c561 -546 793 -774 778 -765 -8 5 -271 190 -585 412 l-569 402
-196 -5 c-107 -3 -216 -6 -242 -8 -27 -1 -48 1 -48 4 0 3 58 35 128 72 70 38
186 99 257 138 72 38 135 69 142 67 7 -1 158 -144 335 -317z m-3021 -108 c90
-43 206 -98 257 -122 50 -24 90 -45 89 -47 -2 -2 -116 20 -253 48 l-249 51
-190 -56 c-650 -191 -808 -236 -811 -233 -2 2 963 427 992 437 1 0 75 -35 165
-78z m-3256 -867 c798 -230 744 -213 685 -214 -25 -1 -290 6 -590 14 -300 8
-637 17 -750 19 -412 11 -655 18 -657 20 -1 1 198 35 442 75 244 41 442 77
440 82 -3 4 -68 51 -145 104 -77 54 -140 99 -140 102 0 2 8 2 18 -1 9 -2 323
-93 697 -201z m2646 -317 c31 -14 75 -42 98 -63 l41 -37 -29 -41 c-192 -281
-484 -946 -631 -1437 -51 -170 -102 -371 -96 -377 6 -6 387 479 401 511 8 17
28 65 46 106 109 260 304 514 470 616 l56 34 57 -20 56 -19 0 22 c0 12 -6 50
-13 83 l-13 62 56 5 c31 3 92 4 136 3 l79 -1 31 -62 c65 -130 86 -323 60 -544
-40 -342 -174 -700 -347 -928 -38 -50 -69 -93 -69 -95 0 -2 14 -9 31 -15 l31
-11 -20 -32 c-176 -289 -305 -493 -310 -493 -4 0 -62 15 -129 34 -114 32 -121
35 -113 55 4 12 35 84 69 161 l60 140 -37 7 c-103 21 -188 69 -232 130 -38 53
-52 102 -59 211 l-6 87 -101 -147 -102 -148 42 -23 c41 -23 106 -80 106 -93 0
-3 -23 -46 -51 -95 -240 -415 -517 -1153 -625 -1659 -12 -60 -22 -111 -20
-112 1 -2 18 18 36 45 19 26 142 191 273 366 l239 320 108 240 c140 315 140
314 164 320 12 3 46 6 76 6 70 0 140 -32 198 -90 41 -42 42 -44 26 -67 -133
-205 -288 -504 -362 -703 -49 -131 -117 -379 -110 -400 2 -6 21 13 42 42 22
29 138 181 258 338 180 234 226 301 259 375 141 314 235 507 253 517 11 6 50
8 91 6 81 -5 135 -32 198 -96 l38 -39 -74 -114 c-92 -141 -182 -303 -242 -434
-53 -115 -50 -114 35 14 185 277 428 558 570 656 87 60 208 42 305 -47 30 -27
55 -55 55 -61 0 -6 -36 -65 -79 -131 -219 -336 -378 -686 -436 -966 -9 -42
-16 -50 121 120 59 74 190 234 290 356 l182 220 136 272 c135 269 136 272 169
274 165 8 248 -51 368 -260 l64 -114 87 179 c48 98 89 183 91 188 2 6 35 9 78
8 88 -3 172 -39 231 -100 l37 -38 -57 -85 c-391 -585 -827 -1694 -831 -2119
l-1 -43 -32 6 c-51 10 -150 60 -190 95 -44 38 -82 100 -97 159 -11 37 -9 55
14 140 35 128 117 358 215 600 43 108 78 198 76 199 -1 2 -78 -110 -170 -248
-149 -222 -170 -249 -189 -243 -170 52 -266 134 -298 256 -12 44 -10 55 23
168 19 67 32 118 28 113 -11 -13 -250 -348 -320 -450 -61 -88 -65 -92 -94 -86
-143 27 -257 121 -292 240 -16 54 -16 54 26 195 63 219 196 561 292 752 16 32
27 60 25 62 -7 7 -107 -111 -174 -206 -247 -350 -483 -852 -483 -1028 l0 -44
-32 7 c-154 33 -254 117 -291 242 -15 50 -15 57 8 140 13 48 23 89 22 90 -1 0
-76 -111 -167 -248 l-165 -250 -35 4 c-102 13 -229 96 -269 176 -44 86 -42
126 14 324 8 25 -47 -56 -234 -345 -148 -232 -136 -222 -236 -188 -114 39
-181 93 -226 182 -23 46 -28 91 -16 155 l7 42 -118 -127 c-163 -175 -299 -300
-359 -331 -28 -14 -24 -16 -188 91 -144 93 -160 115 -160 218 0 211 62 535
150 790 70 204 238 520 303 570 15 12 2 7 -28 -10 -56 -32 -144 -75 -213 -103
-20 -9 -36 -20 -35 -24 2 -5 -29 -73 -69 -153 -241 -486 -464 -1202 -549
-1760 -10 -67 -17 -178 -18 -267 -1 -95 -5 -153 -11 -153 -5 0 -34 7 -64 15
-129 34 -210 97 -257 200 -22 48 -23 58 -14 121 22 161 82 406 174 723 25 85
44 156 43 157 -1 1 -26 -43 -55 -99 -29 -56 -94 -180 -145 -275 l-92 -174 -40
6 c-22 4 -68 16 -103 27 -118 39 -219 164 -210 260 2 22 2 39 1 39 -1 0 -30
-41 -64 -91 -188 -280 -366 -482 -510 -578 -62 -42 -64 -42 -129 -35 -87 9
-198 38 -271 70 -105 48 -180 156 -215 312 -24 108 -15 356 19 512 40 180 92
349 164 529 150 378 367 760 587 1032 94 117 237 256 272 265 51 13 248 -71
343 -146 61 -48 71 -78 71 -211 0 -237 -129 -611 -298 -866 -62 -94 -180 -148
-304 -141 -40 3 -86 10 -101 16 l-29 12 39 48 c117 141 240 369 349 647 45
116 88 257 99 321 l6 39 -67 -70 c-334 -350 -672 -1017 -760 -1500 -12 -66
-18 -147 -18 -240 0 -125 3 -146 24 -193 38 -87 82 -102 175 -58 135 63 396
364 666 768 96 142 105 161 154 307 29 86 80 230 114 320 l61 164 -23 21 c-38
36 -60 136 -55 254 2 56 6 104 10 107 3 4 23 -2 45 -13 68 -35 175 -62 284
-71 352 -30 761 92 1031 307 215 171 327 371 345 613 5 76 -8 224 -24 265 -3
10 -24 0 -76 -35 -98 -65 -231 -143 -336 -196 l-87 -43 -59 -124 c-91 -192
-169 -383 -205 -501 l-33 -108 -31 7 c-108 23 -196 111 -232 230 -13 45 -12
48 31 169 25 68 106 280 181 472 362 926 532 1421 551 1607 l6 58 -34 -7
c-281 -60 -728 -652 -910 -1206 -85 -258 -95 -489 -29 -619 11 -22 20 -41 20
-43 0 -15 -136 -40 -210 -40 -97 1 -156 19 -182 54 -73 100 -61 371 28 638
236 708 818 1361 1213 1361 97 0 245 -49 340 -113 l44 -30 -6 -66 c-6 -72 -64
-307 -122 -496 -21 -66 -39 -129 -42 -140 -2 -11 53 93 124 230 71 138 151
291 178 340 52 97 176 318 181 324 8 10 131 -43 176 -75 190 -140 253 -409
170 -724 -72 -271 -189 -477 -389 -681 l-94 -96 50 -33 c79 -50 134 -129 150
-214 12 -65 -4 -232 -34 -342 -78 -294 -253 -524 -585 -767 -20 -14 -21 -17
-5 -12 51 17 96 16 169 -4 75 -21 79 -21 92 -4 7 10 14 21 14 25 0 4 9 10 20
13 16 5 149 -56 242 -111 4 -3 -6 -24 -21 -47 -41 -60 -84 -164 -162 -386 -38
-107 -70 -194 -71 -195 -2 -1 -36 0 -77 2 l-74 4 6 106 c4 59 16 161 27 226
11 66 19 121 17 123 -4 4 -101 -197 -160 -332 -113 -259 -209 -665 -183 -769
8 -33 40 -35 96 -6 57 29 223 192 371 364 l127 148 80 237 c92 272 206 576
356 954 59 146 106 268 106 272 0 3 -15 12 -33 20 -88 37 -173 136 -192 222
-14 69 106 466 272 898 101 264 204 515 364 886 140 328 151 352 164 362 6 4
46 6 90 4 59 -2 95 -10 136 -29z m-5731 -221 c-10 -23 -31 -84 -46 -134 -16
-53 -33 -93 -40 -93 -7 0 -33 31 -59 69 -25 39 -78 99 -116 135 l-71 66 169 2
c92 2 171 2 175 0 4 -1 -2 -21 -12 -45z m815 -256 c34 -17 69 -39 79 -50 16
-18 15 -22 -22 -97 -22 -44 -59 -124 -82 -179 -23 -55 -44 -103 -46 -107 -2
-3 14 -4 37 -1 34 5 44 2 69 -22 28 -27 56 -84 42 -86 -4 0 -50 -8 -102 -17
l-95 -17 -24 -65 c-92 -253 -208 -686 -261 -980 -31 -169 -60 -362 -55 -368 1
-1 20 26 42 60 315 493 293 453 329 586 56 204 145 414 245 580 53 87 75 111
124 133 78 36 202 16 392 -63 106 -43 118 -67 118 -223 0 -136 -18 -217 -86
-390 -65 -167 -175 -342 -250 -397 -38 -28 -148 -28 -211 -1 l-46 21 -12 -66
c-6 -37 -14 -96 -16 -132 -10 -129 49 -174 147 -111 90 57 425 454 756 896
l23 30 20 -25 c28 -35 43 -97 36 -144 -10 -61 -49 -129 -148 -261 -354 -467
-580 -709 -733 -785 -101 -49 -93 -51 -260 49 -171 104 -185 120 -194 235 l-6
68 -134 -249 -133 -250 -42 4 c-162 17 -297 102 -340 215 -16 42 -17 53 -3
144 8 55 14 100 13 101 -1 1 -69 -126 -151 -283 l-150 -284 -35 0 c-99 0 -228
57 -291 129 -57 64 -65 101 -50 224 8 56 15 118 17 137 l4 35 -16 -35 c-9 -19
-74 -164 -146 -322 l-131 -288 -36 0 c-57 0 -160 28 -214 57 -86 47 -152 150
-143 222 3 20 8 63 11 96 24 223 96 539 210 915 131 432 116 392 155 406 61
22 158 17 219 -11 69 -33 97 -56 203 -177 58 -65 90 -95 93 -85 3 7 32 94 65
193 68 209 68 208 190 209 62 0 85 -5 130 -27 30 -15 67 -38 82 -50 l26 -23
-47 -96 c-114 -229 -202 -463 -256 -681 -31 -127 -71 -384 -63 -408 2 -6 56
76 120 182 65 106 165 270 224 363 l106 170 49 180 c28 99 75 264 105 366 30
103 54 191 54 197 0 7 -11 7 -35 1 -30 -9 -41 -7 -71 11 -38 24 -84 85 -84
111 0 17 17 21 155 35 33 4 67 10 75 14 9 5 48 108 95 254 73 229 81 247 104
252 14 3 31 8 36 10 6 2 43 2 84 0 56 -4 89 -12 136 -35z m6717 -121 c47 -94
63 -186 62 -355 -3 -411 -182 -901 -428 -1172 -62 -68 -170 -145 -237 -169
-135 -47 -323 -2 -417 100 -56 61 -76 131 -75 266 1 220 86 491 241 771 105
189 279 386 405 458 l57 33 47 -16 c26 -9 51 -16 56 -16 10 0 4 111 -9 143 -6
16 3 17 132 15 l138 -3 28 -55z m3904 45 c10 -2 27 -4 37 -4 25 -1 22 -22 -23
-134 -22 -55 -39 -102 -36 -104 2 -2 44 -15 95 -28 190 -51 305 -139 342 -263
l12 -43 -70 -72 c-132 -136 -245 -279 -372 -472 -64 -97 -187 -323 -179 -330
2 -2 84 74 183 168 509 485 624 589 646 582 29 -10 49 -61 38 -98 -14 -50 -50
-95 -194 -247 -192 -203 -494 -527 -659 -708 -155 -170 -136 -161 -242 -111
-130 61 -207 163 -208 274 -1 56 5 72 81 225 93 188 200 353 426 657 156 210
157 213 142 237 -17 25 -89 66 -117 66 -9 0 -50 -61 -105 -157 -208 -364 -396
-631 -580 -823 -266 -278 -505 -409 -788 -434 l-70 -7 -130 116 c-74 66 -136
129 -143 147 -17 40 -16 110 2 176 8 28 13 52 11 52 -2 0 -90 -103 -195 -230
-105 -126 -195 -230 -199 -230 -23 0 -123 41 -169 69 -74 46 -119 103 -143
181 l-20 66 42 120 c72 205 212 508 341 737 28 49 48 90 46 93 -7 6 -140 -135
-214 -226 -257 -317 -495 -733 -541 -945 l-17 -77 -30 6 c-96 20 -228 112
-267 187 -40 79 -41 113 -4 223 67 206 186 475 313 711 38 72 67 132 65 135
-3 3 -32 -24 -66 -60 -287 -309 -614 -856 -665 -1113 -9 -45 -17 -83 -17 -85
-3 -5 -113 37 -161 61 -90 45 -174 164 -174 245 0 34 65 229 132 397 75 187
201 444 357 730 67 121 122 224 124 229 2 6 33 12 69 14 96 6 155 -17 231 -88
l61 -57 -73 -97 c-103 -138 -212 -309 -278 -433 -63 -122 -61 -122 28 -3 208
277 525 592 654 651 90 42 206 14 297 -69 32 -30 58 -59 58 -65 0 -5 -31 -51
-68 -101 -134 -178 -221 -312 -296 -451 -43 -79 -38 -75 90 81 204 248 457
492 591 571 36 21 57 26 111 26 89 0 154 -29 222 -98 l53 -54 -59 -75 c-177
-228 -324 -459 -419 -658 -57 -121 -118 -281 -130 -338 -7 -35 -7 -35 12 -15
11 11 120 124 242 252 213 223 224 236 277 340 103 198 295 462 406 557 48 42
106 60 161 53 89 -12 354 -162 381 -216 63 -120 -55 -424 -262 -681 -68 -85
-129 -145 -191 -185 -65 -43 -169 -33 -248 24 l-41 30 -26 -72 c-29 -80 -66
-205 -66 -224 0 -23 48 -45 99 -45 98 1 240 80 383 211 306 284 685 880 842
1325 6 17 14 18 119 12 62 -4 122 -9 133 -11z m-12084 -127 c17 -18 37 -48 45
-66 13 -32 12 -36 -23 -95 -63 -104 -310 -341 -587 -562 -33 -27 -41 -42 -67
-135 -92 -318 -187 -757 -234 -1075 -25 -170 -30 -212 -45 -380 -11 -127 -13
-367 -2 -383 7 -11 30 -6 117 26 231 85 566 173 831 218 94 16 171 24 187 20
63 -16 160 -138 181 -227 l7 -27 -64 1 c-320 6 -1280 -234 -1619 -404 -56 -28
-57 -28 -90 -10 -18 10 -51 39 -73 65 -48 57 -62 44 173 164 l174 90 -44 22
c-56 28 -125 94 -151 144 -17 33 -19 51 -14 115 21 265 101 700 228 1234 16
71 28 130 25 133 -2 3 -48 -44 -100 -103 -313 -351 -475 -665 -518 -1000 l-11
-92 -47 24 c-154 78 -262 243 -232 355 17 65 100 234 162 331 158 247 424 519
734 751 l120 90 46 102 c135 299 314 494 563 612 77 36 246 91 289 94 5 0 23
-15 39 -32z"/>
<path d="M8743 7528 c-50 -101 -169 -316 -264 -478 -210 -360 -350 -612 -344
-618 9 -10 164 118 265 218 313 310 478 644 457 923 -12 160 -11 161 -114 -45z"/>
<path d="M10418 7128 c-219 -254 -421 -685 -463 -990 -11 -78 -11 -156 0 -166
2 -2 19 5 39 17 144 89 356 493 452 859 23 90 47 342 31 342 -3 0 -30 -28 -59
-62z"/>
<path d="M11864 4883 c-129 -199 -254 -449 -318 -632 -36 -103 -89 -292 -83
-297 2 -2 46 54 98 124 51 69 184 239 294 377 110 137 204 255 208 262 8 14
-119 253 -134 253 -5 0 -35 -39 -65 -87z"/>
<path d="M7300 4826 l-95 -11 -52 -95 c-105 -189 -206 -435 -267 -648 -34
-116 -80 -360 -74 -387 2 -8 65 90 142 217 76 128 193 315 258 417 110 171
125 198 173 336 29 83 56 158 60 168 8 20 3 20 -145 3z"/>
<path d="M5543 6716 c-46 -56 -148 -272 -197 -418 -49 -143 -53 -164 -33 -171
24 -8 82 12 104 37 47 55 168 421 174 531 4 61 -10 67 -48 21z"/>
<path d="M3516 6412 c-31 -61 -116 -276 -150 -380 -68 -213 -110 -415 -121
-597 l-6 -100 87 165 c80 152 352 645 384 697 13 20 12 25 -6 45 -19 21 -163
188 -170 196 -1 2 -9 -10 -18 -26z"/>
<path d="M11480 7164 c-216 -233 -437 -668 -494 -973 -17 -90 -21 -191 -8
-191 25 0 107 70 157 133 207 263 404 771 393 1013 l-3 67 -45 -49z"/>
<path d="M14604 7026 c-81 -85 -171 -211 -261 -365 -67 -115 -72 -127 -56
-138 21 -16 64 -17 97 -1 48 21 189 252 270 441 61 143 46 163 -50 63z"/>
<path d="M3392 7250 c-63 -32 -96 -57 -154 -119 -40 -43 -84 -98 -97 -122
l-25 -44 40 29 c91 68 173 133 232 184 64 56 111 112 94 112 -5 0 -46 -18 -90
-40z"/>
<path d="M11740 10582 c-58 -31 -111 -61 -118 -65 -9 -6 -4 -23 19 -69 l30
-60 42 58 c84 117 138 194 135 194 -2 -1 -50 -26 -108 -58z"/>
<path d="M11688 10147 c-71 -22 -128 -43 -128 -47 0 -3 31 -17 70 -30 l70 -24
46 44 c50 49 90 101 77 99 -4 -1 -65 -19 -135 -42z"/>
<path d="M11230 9828 c-128 -97 -122 -91 -80 -84 19 3 74 8 121 11 l85 6 -8
67 c-5 37 -10 70 -11 73 -1 3 -49 -29 -107 -73z"/>
<path d="M11620 9754 c0 -8 104 -143 110 -143 3 0 24 28 48 62 l43 62 -73 12
c-82 13 -128 16 -128 7z"/>
</g>
</svg>
